<?xml version="1.0" standalone="no"?>
<!DOCTYPE svg PUBLIC "-//W3C//DTD SVG 20010904//EN"
 "http://www.w3.org/TR/2001/REC-SVG-20010904/DTD/svg10.dtd">
<svg version="1.0" xmlns="http://www.w3.org/2000/svg"
 width="700.000000pt" height="700.000000pt" viewBox="0 0 700.000000 700.000000"
 preserveAspectRatio="xMidYMid meet">
<metadata>
Created by potrace 1.14, written by Peter Selinger 2001-2017
</metadata>
<g transform="translate(0.000000,700.000000) scale(0.100000,-0.100000)"
fill="#000000" stroke="none">
<path d="M5168 6825 c-2 -1 -48 -5 -103 -8 -55 -4 -109 -8 -120 -11 -11 -2
-40 -7 -65 -11 -277 -43 -599 -187 -846 -377 -193 -149 -391 -382 -499 -590
-17 -32 -32 -58 -35 -58 -3 0 -14 17 -25 38 -151 290 -404 558 -694 735 -132
80 -346 172 -498 212 -285 77 -603 84 -908 20 -164 -34 -296 -87 -618 -248
-175 -88 -317 -160 -315 -162 2 -1 134 -46 293 -100 334 -111 457 -160 639
-252 241 -122 491 -288 682 -454 l45 -39 -88 0 c-339 -2 -650 -84 -948 -250
-362 -201 -687 -568 -851 -960 -26 -62 -214 -623 -210 -627 1 -1 42 18 91 42
521 254 604 291 806 359 137 46 332 99 404 110 22 3 51 8 65 11 21 5 10 -11
-55 -77 -195 -201 -336 -421 -428 -669 -38 -100 -81 -255 -92 -327 -3 -23 -8
-56 -11 -74 -26 -182 -24 -423 7 -581 5 -29 12 -65 15 -82 3 -16 12 -55 20
-85 9 -30 19 -71 24 -90 19 -74 87 -226 223 -498 77 -155 144 -279 148 -275 3
5 44 121 89 258 123 374 208 577 329 790 22 39 44 77 48 85 31 64 246 364 333
464 241 280 541 537 831 714 l35 21 -2 -47 c-6 -161 -15 -343 -18 -377 -2 -22
-7 -83 -11 -135 -4 -52 -9 -102 -10 -110 -2 -8 -6 -49 -10 -90 -3 -41 -8 -82
-10 -90 -2 -8 -7 -37 -10 -65 -3 -27 -12 -93 -21 -145 -27 -163 -30 -182 -49
-280 -9 -41 -17 -86 -20 -100 -22 -118 -36 -176 -120 -499 -54 -203 -249 -773
-277 -809 -6 -6 -8 -12 -5 -12 5 0 -125 -303 -167 -390 l-17 -35 -1070 2
-1069 1 0 -204 0 -204 1763 -1 c2343 -1 5209 -1 5225 0 9 1 12 49 12 206 l0
205 -1615 0 c-1116 0 -1615 3 -1615 10 0 6 18 83 40 171 140 557 210 974 266
1584 3 33 7 78 9 100 2 22 6 94 10 160 3 66 8 145 11 175 3 30 7 259 9 509 2
249 6 455 9 458 3 3 51 -25 108 -62 292 -191 532 -407 784 -704 137 -161 296
-404 408 -624 95 -186 154 -335 256 -642 51 -154 96 -284 100 -288 6 -7 246
462 300 588 50 115 107 302 124 405 55 339 35 640 -64 938 -59 178 -120 303
-243 496 -37 59 -177 224 -236 280 -29 26 -50 50 -48 52 6 7 186 -33 322 -71
236 -66 383 -126 760 -310 246 -120 305 -148 305 -142 0 18 -206 612 -232 667
-45 98 -176 316 -247 410 -256 342 -647 599 -1070 704 -163 41 -265 54 -431
56 l-115 1 45 41 c120 109 382 290 568 392 219 121 388 191 780 321 145 48
260 91 255 95 -4 4 -141 75 -304 157 -329 166 -494 229 -702 267 -84 15 -370
39 -379 31z"/>
</g>
</svg>
